<svg id="Layer_1" enable-background="new 0 0 512 512" viewBox="0 0 512 512" xmlns="http://www.w3.org/2000/svg"><g id="Layer_2_00000069355559892844050610000017264978006569161148_"><g id="white_copy_9"><g id="_93"><path d="m227.2 512c35.5 0 67-22.8 78-56.5h-156c11.1 33.7 42.6 56.5 78 56.5z"/><path d="m409.9 325.3c-6.6-6.9-10.2-16-10.2-25.5v-2.8c-9.9 1.9-20 2.9-30.2 2.9-86.8 0-157.4-70.6-157.4-157.4 0-37.8 13.6-74.3 38.3-102.9-94.3-12.8-181.2 53.4-194 147.7-1 7.7-1.6 15.4-1.6 23.2v89.2c0 9.5-3.7 18.7-10.2 25.5l-35.8 37.5c-5.7 5.9-8.8 13.7-8.8 21.9v32.8c0 12.8 10.4 23.2 23.2 23.2h408c12.8 0 23.2-10.4 23.2-23.2v-32.8c0-8.1-3.1-16-8.8-21.8z"/><path d="m470.3 41.7c-55.6-55.7-145.9-55.7-201.5 0s-55.7 145.9 0 201.5 145.9 55.7 201.5 0c55.6-55.6 55.6-145.8 0-201.5zm-171.9 29.7c33.6-33.5 85.9-39 125.7-13.3l-139 139c-25.7-39.8-20.1-92.1 13.3-125.7zm16.5 155.5 139-139c30.2 46.6 16.9 108.8-29.7 139-33.3 21.5-76.1 21.5-109.3 0z"/></g></g></g></svg>