<svg id="Layer_2" viewBox="0 0 512 512" xmlns="http://www.w3.org/2000/svg" data-name="Layer 2"><g id="Icon"><g id="_24" data-name="24"><rect fill="#66cb7c" height="512" rx="100" width="512"/><g fill="#473535"><path d="m358.45 314.26c-.87 12.5-31.17 55.75-102.45 55.75s-101.57-43.25-102.45-55.75c-.78-11.22 6.92-15.94 16.37-14.01 9.44 1.93 32.69 23.76 86.07 23.76s76.63-21.83 86.07-23.76 17.16 2.78 16.37 14.01z"/><g id="Eyes"><path d="m299.92 216.15c-3.15 0-6.33-.85-9.21-2.63-8.22-5.09-10.74-15.89-5.66-24.11 2.62-4.23 26.57-41.34 60.66-41.34s58.04 37.11 60.66 41.34c5.09 8.22 2.55 19-5.67 24.09-8.21 5.08-18.97 2.56-24.06-5.63-5.08-8.1-19.32-24.81-30.92-24.81s-25.84 16.71-30.92 24.81c-3.31 5.34-9.02 8.28-14.87 8.28z"/><path d="m120.5 216.15c-3.15 0-6.33-.85-9.21-2.63-8.22-5.09-10.74-15.89-5.66-24.11 2.62-4.23 26.57-41.34 60.66-41.34s58.04 37.11 60.66 41.34c5.09 8.22 2.55 19-5.67 24.09s-19 2.55-24.09-5.67c-5.05-8.05-19.29-24.76-30.89-24.76s-25.84 16.71-30.92 24.81c-3.31 5.34-9.02 8.28-14.87 8.28z"/></g><g id="Eyebrows"><path d="m99.29 121.11c2 11.35 14.9 17.05 24.61 10.84 8.86-5.67 20.25-11.2 33.31-13.5s25.66-1.01 35.92 1.29c11.25 2.52 21.42-7.25 19.42-18.6-.92-5.19-4.29-9.64-9.08-11.85-9.44-4.34-27.27-9.73-52.33-5.32-25.06 4.42-39.97 15.59-47.36 22.89-3.75 3.71-5.4 9.04-4.48 14.24z"/><path d="m412.71 121.11c-2 11.35-14.9 17.05-24.61 10.84-8.86-5.67-20.25-11.2-33.31-13.5s-25.66-1.01-35.92 1.29c-11.25 2.52-21.42-7.25-19.42-18.6.92-5.19 4.29-9.64 9.08-11.85 9.44-4.34 27.27-9.73 52.33-5.32 25.06 4.42 39.97 15.59 47.36 22.89 3.75 3.71 5.4 9.04 4.48 14.24z"/></g></g></g></g></svg>