<svg id="Capa_1" enable-background="new 0 0 512 512" height="512" viewBox="0 0 512 512" width="512" xmlns="http://www.w3.org/2000/svg"><g><g><path d="m33.485 46.254h29.997v62.459h-29.997z" transform="matrix(.707 -.707 .707 .707 -40.588 56.977)"/><path d="m0 150h61.059v30h-61.059z"/><path d="m17.614 237.189h62.397v29.997h-62.397z" transform="matrix(.707 -.707 .707 .707 -164.027 108.38)"/><path d="m432.288 62.485h62.459v29.997h-62.459z" transform="matrix(.707 -.707 .707 .707 80.972 350.45)"/><path d="m450.941 150h61.059v30h-61.059z"/><path d="m448.189 220.989h29.997v62.397h-29.997z" transform="matrix(.707 -.707 .707 .707 -42.659 401.387)"/><path d="m256 512c41.353 0 75-33.647 75-75v-47h-150v47c0 41.353 33.647 75 75 75z"/></g><path d="m418.48 135.864c-13.623-78.72-81.958-135.864-162.48-135.864s-148.857 57.144-162.48 135.879c-9.434 54.551 8.599 109.849 48.237 147.891 21.233 20.385 34.138 47.615 37.685 76.23h153.118c3.552-28.627 16.454-55.849 37.683-76.23 39.639-38.042 57.671-93.34 48.237-147.906zm-147.48 134.136h-30v-30h30zm11.662-98.747c-7.303 5.377-11.662 13.989-11.662 23.039v15.708h-30v-15.708c0-18.547 8.925-36.19 23.875-47.197 3.893-2.866 6.125-7.274 6.125-12.095 0-8.271-6.729-15-15-15s-15 6.729-15 15v15h-30v-15c0-24.813 20.187-45 45-45s45 20.187 45 45c0 14.246-6.855 27.799-18.338 36.253z"/></g></svg>