<?xml version="1.0" encoding="UTF-8"?>
<svg xmlns="http://www.w3.org/2000/svg" id="Layer_1" data-name="Layer 1" viewBox="0 0 24 24">
  <path d="M19.164,16.881c-2.535,1.526-4.599,2.225-4.984,2.349l-2.18,.696-2.178-.695c-.387-.125-2.449-.822-4.987-2.349-.71-.426-1.632-.197-2.059,.512-.427,.71-.198,1.631,.512,2.059,2.751,1.656,4.995,2.436,5.619,2.636l2.636,.842c.148,.047,.303,.071,.457,.071s.308-.024,.457-.071l2.638-.842c.622-.2,2.868-.981,5.616-2.635,.71-.427,.938-1.349,.512-2.059-.427-.71-1.35-.938-2.059-.512Z"/>
  <path d="M19.06,11.795c-.296,.214-.615,.438-.957,.672-2.676,1.833-4.989,2.604-5.242,2.686l-.861,.275-.859-.275c-.254-.081-2.561-.848-5.244-2.686-.342-.234-.66-.458-.957-.672-.672-.485-1.61-.334-2.094,.338-.485,.671-.333,1.609,.338,2.094,.315,.228,.655,.467,1.018,.715,2.971,2.035,5.539,2.912,6.024,3.067l1.317,.421c.148,.047,.302,.071,.457,.071s.308-.024,.457-.071l1.32-.421c.485-.156,3.058-1.038,6.021-3.067,.364-.249,.703-.488,1.019-.715,.672-.485,.823-1.423,.338-2.094-.485-.673-1.423-.822-2.094-.338Z"/>
  <path d="M2.977,8.727c.052,.048,1.283,1.189,3.599,2.774,2.59,1.774,4.836,2.503,4.93,2.533,.161,.051,.327,.077,.494,.077s.333-.026,.494-.077c.094-.03,2.34-.758,4.93-2.533,2.315-1.585,3.547-2.726,3.599-2.774,.326-.304,.511-.728,.511-1.172s-.185-.869-.512-1.172c-.05-.048-1.283-1.188-3.598-2.773-2.591-1.775-4.836-2.503-4.93-2.533-.322-.102-.666-.102-.988,0-.094,.03-2.34,.758-4.93,2.533-2.315,1.585-3.547,2.726-3.598,2.773-.326,.304-.511,.728-.511,1.172s.185,.868,.511,1.172Z"/>
</svg>
