<svg id="Layer_2" viewBox="0 0 512 512" xmlns="http://www.w3.org/2000/svg" data-name="Layer 2"><g id="Icon"><g id="_75" data-name="75"><rect fill="#ffffff" height="512" rx="100" width="512"/><g fill="#000000"><g id="Eyes"><path d="m212.08 219.43c3.15 0 6.33.85 9.21 2.63 8.22 5.09 10.74 15.89 5.66 24.11-2.62 4.23-26.57 31.34-60.66 31.34s-58.04-27.11-60.66-31.34c-5.09-8.22-2.55-19 5.67-24.09 8.21-5.08 18.97-2.56 24.06 5.63 5.08 8.1 19.32 14.81 30.92 14.81s25.84-6.71 30.92-14.81c3.31-5.34 9.02-8.28 14.87-8.28z"/><path d="m391.5 219.43c3.15 0 6.33.85 9.21 2.63 8.22 5.09 10.74 15.89 5.66 24.11-2.62 4.23-26.57 31.34-60.66 31.34s-58.04-27.11-60.66-31.34c-5.09-8.22-2.55-19 5.67-24.09s19-2.55 24.09 5.67c5.05 8.05 19.29 14.76 30.89 14.76s25.84-6.71 30.92-14.81c3.31-5.34 9.02-8.28 14.87-8.28z"/></g><path d="m317.21 371.68c0 12.74-27.4-1.31-61.21-1.31s-61.21 14.05-61.21 1.31 27.4-38.07 61.21-38.07 61.21 25.33 61.21 38.07z"/><g id="Eyebrows"><path d="m90.31 178.69c2.79 11.18 16.05 15.97 25.3 9.09 8.44-6.27 19.42-12.58 32.29-15.79s25.53-2.79 35.92-1.22c11.39 1.73 20.86-8.73 18.07-19.91-1.28-5.12-4.95-9.32-9.89-11.18-9.72-3.67-27.88-7.81-52.57-1.65s-38.79 18.34-45.64 26.14c-3.48 3.96-4.76 9.4-3.48 14.52z"/><path d="m421.69 178.69c-2.79 11.18-16.05 15.97-25.3 9.09-8.44-6.27-19.42-12.58-32.29-15.79s-25.53-2.79-35.92-1.22c-11.39 1.73-20.86-8.73-18.07-19.91 1.28-5.12 4.95-9.32 9.89-11.18 9.72-3.67 27.88-7.81 52.57-1.65s38.79 18.34 45.64 26.14c3.48 3.96 4.76 9.4 3.48 14.52z"/></g></g></g></g></svg>