<svg viewBox="0 0 120 112.71" xmlns="http://www.w3.org/2000/svg" xmlns:xlink="http://www.w3.org/1999/xlink"><clipPath id="clip-path" transform="translate(-4 -7.65)"><path d="m0 0h128v128h-128z"/></clipPath><g id="Layer_2" data-name="Layer 2"><g id="Layer_1-2" data-name="Layer 1"><g clip-path="url(#clip-path)"><path d="m7.92 64c-17.77 30.76 29.1 56 56 56.34s74.19-24.86 56-56.36-20.54-56.71-55.99-56.33-38.31 25.6-56.01 56.35z" fill="#67aeff" transform="translate(-4 -7.65)"/><path d="m95.45 74.58c2.18 16.18 28.24 16.3 23.37 0-4.68-11.89-18.74-23.44-18.29-23.43.07.04-7.14 11.62-5.08 23.43z" fill="#c2dbef" transform="translate(-4 -7.65)"/><path d="m75.72 60.23c4.94 0 9.69 4.22 10.58 9.42s-3.2 9.42-8.94 9.41-10.42-4.23-10.49-9.42a9.07 9.07 0 0 1 8.85-9.41z" fill="#664e27" transform="translate(-4 -7.65)"/><path d="m34 60.27c4.95 0 8.37 4.18 7.66 9.35s-5.89 9.38-11.61 9.38-9.41-4.2-7.88-9.35 6.83-9.38 11.83-9.38z" fill="#664e27" transform="translate(-4 -7.65)"/><path d="m45.41 41.37a23.23 23.23 0 0 1 -19.93 5.93c-.88-.2-2.72 3.78-1.62 4 7.78 1.59 17.08-.89 23.62-6.82.95-.87-1.31-3.83-2.07-3.11z" fill="#917524" transform="translate(-4 -7.65)"/><path d="m85.6 46.8a21.74 21.74 0 0 1 -19.46-5.8c-.71-.73-3.15 2.28-2.27 3.15a26 26 0 0 0 22.95 6.73c1.18-.27-.31-4.3-1.22-4.08z" fill="#917524" transform="translate(-4 -7.65)"/><path d="m77.09 92.85a49.08 49.08 0 0 0 -36.39 5.49c-2.58 1.61 2.74 7.55 5.13 5.92 6.51-4.2 17.72-7.09 29-4.39 3.1.72 5.59-6.2 2.26-7.02z" fill="#664e27" transform="translate(-4 -7.65)"/></g></g></g></svg>