<svg id="Layer_1" viewBox="0 0 24 24" xmlns="http://www.w3.org/2000/svg" data-name="Layer 1"><path d="m22.171 2.511c-.078-.321-.311-.582-.619-.698-.089-.033-2.209-.813-5.552-.813s-5.463.78-5.551.813c-.309.116-.541.377-.62.698-.034.137-.829 3.437-.829 9.489s.795 9.352.829 9.489c.079.321.311.582.62.698.088.033 2.208.813 5.551.813s5.463-.78 5.552-.813c.309-.116.541-.377.619-.698.034-.137.829-3.437.829-9.489s-.795-9.352-.829-9.489zm-1.83 17.957c-.75.203-2.285.532-4.341.532s-3.592-.33-4.341-.532c-.214-1.142-.659-4.052-.659-8.468s.445-7.326.659-8.468c.75-.203 2.285-.532 4.341-.532s3.591.33 4.341.532c.214 1.142.659 4.052.659 8.468s-.445 7.326-.659 8.468zm-12.933-15.338c-.186 1.417-.408 3.759-.408 6.87s.222 5.453.408 6.87c.072.547-.314 1.049-.862 1.122-.537.073-1.052-.311-1.122-.862-.193-1.476-.424-3.911-.424-7.13s.231-5.654.424-7.13c.072-.548.578-.932 1.122-.862.548.072.934.574.862 1.122zm-4.209 1.955c-.132 1.543-.198 3.197-.198 4.915s.066 3.372.198 4.915c.047.55-.361 1.035-.912 1.082-.543.048-1.037-.36-1.082-.912-.136-1.6-.205-3.31-.205-5.085s.069-3.485.205-5.085c.047-.55.532-.964 1.082-.912.55.047.958.531.912 1.082z"/></svg>