<svg id="Layer_1" height="512" viewBox="0 0 24 24" width="512" xmlns="http://www.w3.org/2000/svg" data-name="Layer 1"><g fill="rgb(0,0,0)"><path d="m16 0h-8a5 5 0 0 0 -5 5v14a5 5 0 0 0 5 5h2.18a2.958 2.958 0 0 1 -.09-1.72l.93-3.76a2.973 2.973 0 0 1 .79-1.4l5.65-5.66a4.994 4.994 0 0 1 3.54-1.46v-5a5 5 0 0 0 -5-5zm-4 13h-4a1 1 0 0 1 0-2h4a1 1 0 0 1 0 2zm4-4h-8a1 1 0 0 1 0-2h8a1 1 0 0 1 0 2zm0-4h-8a1 1 0 0 1 0-2h8a1 1 0 0 1 0 2z"/><path d="m23.964 15a2.99 2.99 0 0 1 -.844 2.12l-.7.71s-4.25-4.24-4.24-4.24l.7-.71a2.964 2.964 0 0 1 5.084 2.12z"/><path d="m21 19.25-3.54 3.53a.923.923 0 0 1 -.46.26l-3.76.93a.994.994 0 0 1 -1.21-1.21l.93-3.76a.923.923 0 0 1 .26-.46l3.54-3.53s4.24 4.23 4.24 4.24z"/></g></svg>